<?xml version="1.0" encoding="UTF-8"?>
<svg width="20px" height="20px" viewBox="0 0 20 20" version="1.1" xmlns="http://www.w3.org/2000/svg" xmlns:xlink="http://www.w3.org/1999/xlink">
    <!-- Generator: Sketch 50.2 (55047) - http://www.bohemiancoding.com/sketch -->
    <title>music</title>
    <desc>Created with Sketch.</desc>
    <defs></defs>
    <g id="Page-1" stroke="none" stroke-width="1" fill="none" fill-rule="evenodd" stroke-linecap="round" stroke-linejoin="round">
        <g id="Desktop-HD" transform="translate(-390.000000, -851.000000)" stroke="#FFFFFF" stroke-width="2">
            <g id="Music" transform="translate(165.000000, 738.000000)">
                <g id="Group-3" transform="translate(18.000000, 100.000000)">
                    <g id="music" transform="translate(208.000000, 14.000000)">
                        <path d="M6,14 L2,14 C0.8954305,14 0,14.8954305 0,16 C0,17.1045695 0.8954305,18 2,18 L4,18 C5.1045695,18 6,17.1045695 6,16 L6,14 Z M18,12 L14,12 C12.8954305,12 12,12.8954305 12,14 C12,15.1045695 12.8954305,16 14,16 L16,16 C17.1045695,16 18,15.1045695 18,14 L18,12 Z" id="Shape"></path>
                        <polyline id="Shape" points="6 14 6 2 18 0 18 12"></polyline>
                    </g>
                </g>
            </g>
        </g>
    </g>
</svg>